# xmcd
#
# Track frame offsets:
#	150
#	15767
#	36160
#	56351
#	65591
#	76559
#	91919
#	104788
#	117394
#	127757
#	141814
#	159282
#	174428
#
# Disc length: 2594 seconds
# Revision: 0
# Processed by: cddbd v1.5.2PL0 Copyright (c) Steve Scherf et al.
# Submitted via: dBpowerAMP V12.0
#
DISCID=960a200d
DTITLE=Kantri Klapp - Country Welcome
DYEAR=2006
DGENRE=Country
TTITLE0=Lovin all night
TTITLE1=Brand new formation
TTITLE2=Peaceful easy feeling
TTITLE3=Hello trouble
TTITLE4=Dig down deep
TTITLE5=Trail of tears
TTITLE6=Rocky top
TTITLE7=Tennessee river
TTITLE8=Guitar town
TTITLE9=Ashes of loves
TTITLE10=Climbing mountains
TTITLE11=We're from the country
TTITLE12=I believe in you
EXTD=
EXTT0=
EXTT1=
EXTT2=
EXTT3=
EXTT4=
EXTT5=
EXTT6=
EXTT7=
EXTT8=
EXTT9=
EXTT10=
EXTT11=
EXTT12=
PLAYORDER=
